<?xml version="1.0" encoding="iso-8859-1"?>
<!-- Generator: Adobe Illustrator 19.0.0, SVG Export Plug-In . SVG Version: 6.00 Build 0)  -->
<svg version="1.1" id="Capa_1" xmlns="http://www.w3.org/2000/svg" xmlns:xlink="http://www.w3.org/1999/xlink" x="0px" y="0px"
	 viewBox="0 0 512.002 512.002" style="enable-background:new 0 0 512.002 512.002;" xml:space="preserve">
<g>
	<path style="fill:#3A484A;" d="M20.465,437.242c-6.617,11.428-17.259,29.235-11.097,42.974
		c5.133,11.443,23.799,22.059,35.998,24.022c14.485,2.332,21.287-12.251,24.926-23.881L20.465,437.242z"/>
	<path style="fill:#3A484A;" d="M437.241,20.465c11.428-6.617,29.235-17.259,42.974-11.097
		c11.443,5.133,22.059,23.799,24.022,35.998c2.332,14.485-12.251,21.287-23.881,24.926L437.241,20.465z"/>
</g>
<g>
	<path style="fill:#FADC60;" d="M26.066,449.171c-9.529-16.869-13.312-37.57-14.294-56.178
		c-5.32-100.967,48.822-193.789,118.126-263.094S292.024,6.452,392.992,11.773c18.608,0.982,39.309,4.765,56.178,14.294
		L26.066,449.171z"/>
	<path style="fill:#FADC60;" d="M70.291,480.358c18.729,2.052,38.56-5.047,53.715-16.853c31.01-24.154,45.344-63.47,64.138-96.605
		c20.813-36.701,42.044-76.524,72.138-106.618s69.917-51.325,106.618-72.138c33.135-18.793,72.452-33.127,96.605-64.138
		c11.807-15.155,18.906-34.987,16.853-53.715L406.899,55.99L210.348,210.35L66.855,385.572L70.291,480.358z"/>
</g>
<path style="fill:#F2C42C;" d="M469.009,42.606c6.713,8.386,10.285,17.884,11.348,27.686
	c-26.173,14.777-53.764,27.541-79.124,41.924c-59.332,33.658-123.728,67.985-172.381,116.637s-82.979,113.048-116.637,172.381
	c-14.382,25.36-27.147,52.951-41.924,79.124c-9.803-1.062-19.3-4.636-27.686-11.348c-6.85-5.481-12.274-12.274-16.539-19.839
	c6.238-111.124,64.733-209.347,139.246-283.859S338.046,32.303,449.17,26.067C456.735,30.331,463.528,35.756,469.009,42.606z"/>
<path d="M139.441,248.146c-2.929-2.929-7.678-2.929-10.605,0c-2.929,2.929-2.929,7.678,0,10.605l10.797,10.797
	c1.464,1.464,3.384,2.197,5.303,2.197s3.839-0.732,5.303-2.197c2.929-2.929,2.929-7.678,0-10.606L139.441,248.146z"/>
<path d="M258.762,128.825c-2.929-2.929-7.678-2.929-10.605,0c-2.929,2.929-2.929,7.677,0,10.605l10.797,10.797
	c1.464,1.464,3.384,2.196,5.303,2.196s3.839-0.732,5.303-2.196c2.929-2.929,2.929-7.678,0-10.606L258.762,128.825z"/>
<path d="M218.067,181.626c-4.133,0.278-7.258,3.853-6.98,7.986c0.376,5.601-1.822,11.225-6.031,15.434
	c-4.209,4.209-9.832,6.407-15.435,6.031c-4.135-0.278-7.708,2.848-7.985,6.98c-0.278,4.133,2.847,7.708,6.98,7.985
	c0.748,0.05,1.496,0.075,2.242,0.075c9.148,0,18.082-3.744,24.803-10.465c7.27-7.27,11.056-17.127,10.389-27.045
	C225.774,184.474,222.213,181.349,218.067,181.626z"/>
<path d="M2.536,483.286c6.17,13.753,26.9,25.982,41.648,28.356c1.414,0.228,2.827,0.343,4.204,0.343
	c11.862,0,20.968-8.007,27.12-23.81c0.466,0.01,0.929,0.038,1.397,0.038c17.654,0,36.135-6.65,51.721-18.793
	c34.539-26.901,50.538-71.294,71.419-108.318c19.055-33.788,38.759-68.725,65.552-95.518c26.792-26.792,61.73-46.497,95.518-65.552
	c37.077-20.911,81.379-36.831,108.317-71.418c12.466-16.001,19.119-35.05,18.755-53.127c21.987-8.594,25.033-21.583,23.467-31.315
	c-2.374-14.747-14.603-35.479-28.357-41.648c-3.711-1.665-7.818-2.508-12.207-2.508c-12.492,0-24.945,6.673-34.531,12.187
	c-12.528-4.409-26.97-7.067-43.16-7.922c-90.951-4.791-186.415,37.937-268.792,120.314C42.229,206.972-0.499,302.431,4.294,393.388
	c0.854,16.189,3.512,30.631,7.921,43.159C4.894,449.272-4.62,467.331,2.536,483.286z M48.386,496.987
	c-0.578,0-1.189-0.051-1.818-0.153c-12.489-2.011-27.125-12.505-30.347-19.687c-2.914-6.498-0.12-15.3,3.806-23.449
	c0.25,0.433,0.516,0.846,0.772,1.271c4.508,7.486,10.26,14.396,17.131,19.895c6.488,5.192,14.169,9.11,22.255,11.238
	C57.748,491.415,53.932,496.987,48.386,496.987z M471.09,15.016c2.292,0,4.277,0.391,6.069,1.195
	c7.183,3.222,17.677,17.857,19.687,30.347c0.38,2.36,1.292,8.026-10.741,13.571c-0.037-0.14-0.083-0.275-0.121-0.414
	c-1.353-4.974-3.344-9.771-5.93-14.231c-5.965-10.288-14.925-18.588-25.059-24.689c-0.43-0.259-0.848-0.527-1.285-0.78
	C459.512,17.219,465.629,15.016,471.09,15.016z M135.212,135.202C181.156,89.257,275.679,13.101,392.608,19.261
	c8.035,0.424,15.658,1.354,22.763,2.761c-0.279,0.042-0.558,0.091-0.838,0.134c-23.975,3.646-47.659,9.744-70.522,17.822
	c-11.33,4.007-22.489,8.525-33.431,13.495c-3.669,1.667-5.391,6.264-3.727,9.93c1.685,3.712,6.225,5.411,9.93,3.727
	c10.693-4.859,21.54-9.233,32.576-13.138c16.113-5.701,32.673-10.339,49.416-13.781c16.015-3.29,32.273-5.484,48.591-6.504
	c0.13,0.079,0.265,0.154,0.395,0.234c11.61,7.128,20.95,17.805,24.129,31.28c0.083,0.351,0.152,0.707,0.227,1.061
	c-1.052,0.582-24.212,13.002-34.876,18.364c-18.603,9.534-36.914,19.494-55.12,29.763c-55.74,31.443-113.376,63.956-158.561,109.142
	c-29.229,29.229-52.837,63.496-74.366,98.626c-4.778,7.796-9.772,16.175-15.002,25.2c-2.045,3.528-0.786,8.212,2.729,10.248
	c3.185,1.846,7.518,0.972,9.733-1.963c1.471-1.948,2.56-4.28,3.791-6.384c23.978-40.909,50.036-81.436,83.721-115.123
	c43.735-43.735,100.465-75.736,155.326-106.685c18.016-10.163,36.181-20.045,54.591-29.478c9.63-4.931,19.259-9.871,28.783-15.006
	c-1.369,12.467-6.726,25.445-15.268,36.412c-25.487,32.723-68.776,47.787-103.853,67.57c-34.666,19.551-70.512,39.767-98.755,68.011
	c-37.11,37.11-62.713,86.593-86.444,132.9c-13.181,25.721-26.81,52.319-49.138,69.71c-10.965,8.542-23.944,13.898-36.411,15.268
	c6.888-12.776,30.395-58.477,35.751-67.922c2.902-5.115,13.638-24.143,13.64-24.145c1.975-3.5,0.724-8.204-2.839-10.219
	c-3.607-2.038-8.182-0.767-10.218,2.84c0,0-10.731,19.018-13.628,24.124c-7.299,12.869-38.825,73.513-39.411,74.572
	c-1.675-0.353-3.333-0.775-4.958-1.313c-10.761-3.559-19.544-11.309-25.814-20.607c-0.365-0.541-1.862-2.165-1.813-2.848
	c0.128-2.042,0.272-4.084,0.437-6.124c0.58-7.176,1.351-14.348,2.406-21.471c6.138-42.773,20.235-84.188,40.069-122.515
	c0.047-0.091,0.092-0.182,0.139-0.273c24.226-46.816,56.64-89.135,93.868-126.344c36.403-36.403,75.815-66.335,117.143-88.966
	c3.559-1.948,4.928-6.616,2.976-10.179c-1.961-3.58-6.601-4.937-10.179-2.977c-44.403,24.313-84.786,55.762-120.545,91.516
	c-22.004,22.001-42.348,45.696-60.409,71.044c-13.406,18.8-25.559,38.503-36.174,59.012c-17.964,34.711-31.439,71.831-38.83,110.245
	c-0.922,4.792-1.756,9.602-2.48,14.429c-0.031,0.202-0.067,0.403-0.098,0.605c-1.406-7.101-2.334-14.717-2.758-22.746
	C13.111,275.679,89.268,181.145,135.212,135.202z"/>
<g>
</g>
<g>
</g>
<g>
</g>
<g>
</g>
<g>
</g>
<g>
</g>
<g>
</g>
<g>
</g>
<g>
</g>
<g>
</g>
<g>
</g>
<g>
</g>
<g>
</g>
<g>
</g>
<g>
</g>
</svg>
